<svg width="225" height="175" viewBox="0 0 225 175" fill="none" xmlns="http://www.w3.org/2000/svg">
<path d="M134.673 64.2844C125.55 64.2844 118.128 74.4975 118.128 87.0525C118.128 99.6075 125.563 109.823 134.673 109.823C143.783 109.823 151.22 99.61 151.22 87.0525C151.22 74.495 143.798 64.2844 134.673 64.2844ZM134.673 105.399C127.31 105.399 121.342 97.1862 121.342 87.0599C121.342 76.9336 127.31 68.7206 134.673 68.7206C142.036 68.7206 148.004 76.9336 148.004 87.0599C148.004 97.1862 142.036 105.399 134.673 105.399V105.399Z" fill="#31539E"/>
<path d="M134.673 0C99.7291 0 71.4121 38.9761 71.4121 87.0525C71.4121 135.129 99.7365 174.107 134.673 174.107C169.609 174.107 197.934 135.131 197.934 87.0525C197.934 38.9736 169.612 0 134.673 0ZM149.33 57.2213L165.007 29.6354C166.99 26.1435 170.648 25.6528 172.787 28.5945L174.968 31.6007L177.153 34.6069C179.29 37.5461 178.933 42.5771 176.395 45.3106L156.348 66.8718C154.237 69.1443 151.327 69.0155 149.548 66.5669C147.768 64.1184 147.679 60.1283 149.33 57.2213ZM131.597 8.62941H137.776C140.797 8.62941 143.131 12.5327 142.732 16.9342L139.637 51.6972C139.312 55.3601 137.188 58.1011 134.68 58.1011C132.172 58.1011 130.041 55.3601 129.724 51.6972L126.619 16.9342C126.229 12.5327 128.562 8.62941 131.597 8.62941ZM92.1926 34.6069L94.376 31.6007L96.5618 28.5945C98.6981 25.6528 102.354 26.1435 104.339 29.6354L120.016 57.2213C121.669 60.1283 121.575 64.1332 119.796 66.5793C118.016 69.0254 115.107 69.1567 112.995 66.8841L92.9485 45.323C90.4107 42.5771 90.0538 37.5461 92.1926 34.6069ZM83.7193 98.1404C80.5223 98.6782 77.6847 95.4663 77.6847 91.3077V82.8022C77.6847 78.6436 80.5223 75.4318 83.7193 75.9696L108.981 80.2223C111.642 80.6684 113.632 83.5928 113.632 87.0525C113.632 90.5122 111.65 93.439 108.981 93.8851L83.7193 98.1404ZM120.016 116.889L104.336 144.484C102.354 147.976 98.6956 148.467 96.5593 145.525L94.376 142.502L92.1926 139.501C90.0538 136.561 90.4107 131.53 92.9485 128.797L112.995 107.223C115.107 104.951 118.016 105.08 119.796 107.528C121.575 109.977 121.669 113.979 120.016 116.886V116.889ZM137.763 165.481H131.597C128.574 165.481 126.242 161.577 126.641 157.176L129.731 122.413C130.056 118.75 132.18 116.009 134.688 116.009C137.196 116.009 139.327 118.75 139.644 122.413L142.727 157.173C143.119 161.585 140.784 165.478 137.763 165.478V165.481ZM134.673 112.606C124.435 112.606 116.106 101.144 116.106 87.0525C116.106 72.9609 124.435 61.5013 134.673 61.5013C144.911 61.5013 153.243 72.9634 153.243 87.0525C153.243 101.142 144.911 112.606 134.673 112.606ZM177.156 139.501L174.968 142.502L172.784 145.508C170.648 148.45 166.992 147.954 165.007 144.484L149.33 116.886C147.679 113.979 147.773 109.974 149.55 107.528C151.327 105.082 154.239 104.951 156.351 107.223L176.398 128.797C178.933 131.53 179.292 136.554 177.156 139.501ZM191.661 91.3052C191.661 95.4638 188.826 98.6757 185.627 98.1379L160.365 93.8851C157.704 93.439 155.714 90.5147 155.714 87.0525C155.714 83.5903 157.696 80.6684 160.365 80.2223L185.624 75.9696C188.824 75.4318 191.659 78.6436 191.659 82.8022V91.3052H191.661Z" fill="#31539E"/>
<path d="M139.706 64.2844C130.581 64.2844 123.159 74.4975 123.159 87.0525C123.159 99.6075 130.581 109.823 139.706 109.823C148.831 109.823 156.251 99.61 156.251 87.0525C156.251 74.495 148.829 64.2844 139.706 64.2844ZM139.706 105.399C132.343 105.399 126.376 97.1862 126.376 87.0599C126.376 76.9336 132.343 68.7206 139.706 68.7206C147.069 68.7206 153.037 76.9336 153.037 87.0599C153.037 97.1862 147.067 105.399 139.706 105.399V105.399Z" fill="#E31E26"/>
<path d="M139.706 0C104.762 0 76.4453 38.9761 76.4453 87.0525C76.4453 135.129 104.767 174.107 139.706 174.107C174.645 174.107 202.972 135.131 202.972 87.0525C202.972 38.9736 174.643 0 139.706 0ZM154.363 57.2213L170.04 29.6354C172.023 26.1435 175.681 25.6528 177.817 28.5945L180.003 31.6007L182.187 34.6069C184.323 37.5461 183.968 42.5771 181.443 45.3106L161.396 66.8718C159.285 69.1443 156.373 69.0155 154.596 66.5669C152.819 64.1184 152.71 60.1283 154.363 57.2213ZM136.616 8.62941H142.794C145.818 8.62941 148.15 12.5327 147.751 16.9342L144.67 51.6972C144.346 55.3601 142.219 58.1011 139.714 58.1011C137.208 58.1011 135.074 55.3601 134.757 51.6972L131.652 16.9342C131.26 12.5327 133.595 8.62941 136.616 8.62941ZM97.2233 34.6069L99.4092 31.6007L101.593 28.5945C103.729 25.6528 107.384 26.1435 109.372 29.6354L125.05 57.2213C126.7 60.1283 126.606 64.1332 124.829 66.5793C123.052 69.0254 120.14 69.1567 118.029 66.8841L97.9817 45.323C95.4414 42.5771 95.087 37.5461 97.2233 34.6069ZM88.7525 98.1404C85.553 98.6782 82.7179 95.4663 82.7179 91.3077V82.8022C82.7179 78.6436 85.553 75.4318 88.7525 75.9696L114.014 80.2223C116.675 80.6684 118.666 83.5928 118.666 87.0525C118.666 90.5122 116.683 93.439 114.014 93.8851L88.7525 98.1404ZM125.05 116.889L109.372 144.484C107.389 147.976 103.729 148.467 101.593 145.525L99.4092 142.502L97.2233 139.496C95.087 136.556 95.4414 131.525 97.9817 128.792L118.029 107.218C120.14 104.946 123.05 105.075 124.829 107.523C126.608 109.972 126.7 113.979 125.05 116.886V116.889ZM142.794 165.481H136.616C133.595 165.481 131.26 161.577 131.659 157.176L134.747 122.413C135.074 118.75 137.198 116.009 139.704 116.009C142.209 116.009 144.343 118.75 144.66 122.413L147.758 157.173C148.15 161.585 145.818 165.478 142.794 165.478V165.481ZM139.706 112.606C129.466 112.606 121.136 101.144 121.136 87.0525C121.136 72.9609 129.466 61.5013 139.706 61.5013C149.946 61.5013 158.274 72.9634 158.274 87.0525C158.274 101.142 149.937 112.606 139.706 112.606ZM182.187 139.501L180.003 142.502L177.817 145.508C175.681 148.45 172.026 147.954 170.04 144.484L154.363 116.886C152.71 113.979 152.804 109.974 154.583 107.528C156.363 105.082 159.272 104.951 161.384 107.223L181.431 128.797C183.969 131.53 184.323 136.554 182.187 139.501ZM196.695 91.3052C196.695 95.4638 193.857 98.6757 190.66 98.1379L165.399 93.8851C162.737 93.439 160.744 90.5147 160.744 87.0525C160.744 83.5903 162.727 80.6684 165.399 80.2223L190.66 75.9696C193.857 75.4318 196.695 78.6436 196.695 82.8022V91.3052Z" fill="#E31E26"/>
<path d="M158.026 71.189C155.86 71.189 153.813 70.0836 152.413 68.158C150.021 64.8693 149.86 59.712 152.028 55.8979L167.706 28.3095C169.248 25.6008 171.741 23.9849 174.38 23.9849C176.576 23.9849 178.568 25.0605 179.989 27.0159L184.358 33.0282C187.247 36.9935 186.806 43.4643 183.396 47.1347L163.349 68.7107C161.865 70.3092 159.974 71.189 158.026 71.189ZM174.383 25.3752C172.251 25.3752 170.209 26.7309 168.93 28.996L153.238 56.5844C151.327 59.9474 151.454 64.4703 153.538 67.3402C154.673 68.9015 156.308 69.7986 158.026 69.7986C159.582 69.7986 161.111 69.075 162.331 67.764L182.378 46.1879C185.364 42.9662 185.756 37.3206 183.233 33.8461L178.863 27.8337C177.711 26.2501 176.12 25.3752 174.38 25.3752H174.383Z" fill="#31539E"/>
<path d="M139.706 60.7826C135.741 60.7826 132.519 57.0652 132.068 51.9351L128.978 17.1721C128.675 13.757 129.674 10.4287 131.652 8.26511C133.02 6.77813 134.784 5.94791 136.608 5.94791H142.787C144.618 5.94791 146.383 6.7707 147.743 8.26511C149.726 10.4262 150.717 13.757 150.417 17.1721L147.342 51.9351C146.888 57.0627 143.677 60.7826 139.706 60.7826ZM136.616 7.33823C135.178 7.33823 133.781 8.00241 132.68 9.20438C130.96 11.0829 130.095 14.0172 130.366 17.0507L133.454 51.8137C133.845 56.2052 136.472 59.3923 139.706 59.3923C142.94 59.3923 145.567 56.2052 145.957 51.8137L149.047 17.0507C149.317 14.0172 148.45 11.0829 146.732 9.20438C145.629 8.00241 144.232 7.33823 142.794 7.33823H136.616Z" fill="#31539E"/>
<path d="M121.384 71.189C119.439 71.189 117.548 70.3092 116.063 68.7107L96.014 47.1347C92.6039 43.4643 92.1652 37.0059 95.0524 33.0282L99.4217 27.0134C100.842 25.058 102.834 23.9825 105.03 23.9825C107.669 23.9825 110.165 25.5983 111.704 28.3071L127.384 55.8979C129.553 59.712 129.392 64.8693 127 68.158C125.597 70.0836 123.553 71.189 121.384 71.189ZM105.028 25.3753C103.293 25.3753 101.697 26.2501 100.544 27.8337L96.1751 33.8461C93.6522 37.3157 94.0438 42.9736 97.0326 46.1879L117.079 67.764C118.299 69.075 119.825 69.7986 121.382 69.7986C123.099 69.7986 124.735 68.9015 125.87 67.3402C127.954 64.4703 128.081 59.9474 126.17 56.5844L110.495 28.996C109.206 26.7309 107.164 25.3753 105.03 25.3753H105.028Z" fill="#31539E"/>
<path d="M88.0512 100.879C83.6299 100.879 80.0339 96.584 80.0339 91.3052V82.8022C80.0339 77.5235 83.6299 73.2286 88.0512 73.2286C88.4349 73.2286 88.8179 73.261 89.1962 73.3252L114.457 77.5705C118.45 78.2422 121.35 82.2273 121.35 87.0475C121.35 91.8678 118.462 95.8603 114.457 96.532L89.1962 100.782C88.8179 100.846 88.4349 100.879 88.0512 100.879ZM88.0512 74.609C84.3957 74.609 81.4243 78.2818 81.4243 82.7873V91.2904C81.4243 95.8009 84.3982 99.4687 88.0512 99.4687C88.3576 99.4677 88.6634 99.442 88.9657 99.3919L114.227 95.1664C117.548 94.6088 119.957 91.2012 119.957 87.0599C119.957 82.9187 117.548 79.5135 114.227 78.9559L88.9707 74.6957C88.6668 74.6453 88.3593 74.6196 88.0512 74.6189V74.609Z" fill="#31539E"/>
<path d="M105.03 150.123C102.834 150.123 100.842 149.047 99.4216 147.092L95.0524 141.079C92.1652 137.114 92.6039 130.643 96.014 126.97L116.061 105.397C117.548 103.798 119.436 102.919 121.384 102.919C123.553 102.919 125.597 104.024 126.998 105.949C129.389 109.238 129.55 114.395 127.382 118.21L111.704 145.798C110.165 148.507 107.669 150.123 105.03 150.123ZM121.387 104.309C119.83 104.309 118.304 105.033 117.084 106.344L97.0375 127.92C94.0487 131.141 93.6571 136.787 96.18 140.261L100.549 146.274C101.702 147.857 103.295 148.732 105.032 148.732C107.166 148.732 109.208 147.377 110.497 145.111L126.175 117.523C128.086 114.16 127.959 109.637 125.875 106.767C124.737 105.206 123.102 104.309 121.384 104.309H121.387Z" fill="#31539E"/>
<path d="M142.794 168.16H136.616C134.785 168.16 133.02 167.337 131.659 165.842C129.677 163.681 128.685 160.35 128.985 156.935L132.068 122.18C132.524 117.052 135.736 113.332 139.706 113.332C143.677 113.332 146.893 117.05 147.342 122.18L150.432 156.935C150.735 160.35 149.736 163.679 147.758 165.842C146.39 167.337 144.626 168.16 142.794 168.16ZM139.706 114.715C136.472 114.715 133.845 117.902 133.454 122.294L130.358 157.057C130.088 160.09 130.953 163.025 132.673 164.903C133.773 166.105 135.171 166.769 136.609 166.769H142.787C144.224 166.769 145.622 166.105 146.725 164.903C148.442 163.025 149.31 160.09 149.04 157.057L145.957 122.294C145.568 117.902 142.938 114.715 139.706 114.715Z" fill="#31539E"/>
<path d="M174.38 150.123C171.741 150.123 169.248 148.507 167.706 145.798L152.028 118.215C149.86 114.4 150.021 109.243 152.413 105.954C153.813 104.029 155.86 102.923 158.026 102.923C159.974 102.923 161.865 103.803 163.349 105.402L183.394 126.97C186.804 130.643 187.245 137.102 184.355 141.079L179.986 147.092C178.568 149.047 176.576 150.123 174.38 150.123ZM158.023 104.309C156.306 104.309 154.67 105.206 153.535 106.767C151.451 109.637 151.325 114.16 153.235 117.523L168.916 145.111C170.204 147.377 172.246 148.732 174.368 148.732C176.103 148.732 177.699 147.857 178.851 146.274L183.233 140.271C185.756 136.802 185.364 131.144 182.378 127.929L162.328 106.344C161.111 105.033 159.582 104.309 158.026 104.309H158.023Z" fill="#31539E"/>
<path d="M191.361 100.879C190.977 100.879 190.593 100.846 190.214 100.782L164.953 96.532C160.96 95.8603 158.063 91.8728 158.063 87.0525C158.063 82.2322 160.96 78.2471 164.953 77.5755L190.214 73.3252C190.593 73.261 190.977 73.2286 191.361 73.2286C195.78 73.2286 199.376 77.5235 199.376 82.8022V91.3052C199.376 96.584 195.785 100.879 191.361 100.879ZM191.361 74.609C191.054 74.6099 190.747 74.6356 190.444 74.6858L165.183 78.9485C161.862 79.5061 159.453 82.9137 159.453 87.0525C159.453 91.1912 161.862 94.6014 165.183 95.159L190.444 99.4117C190.747 99.4619 191.054 99.4876 191.361 99.4886C195.014 99.4886 197.986 95.8157 197.986 91.3102V82.8022C197.986 78.2917 195.014 74.6189 191.361 74.6189V74.609Z" fill="#31539E"/>
<path d="M158.274 157.624C186.613 157.624 209.587 126.028 209.587 87.0525C209.587 48.0767 186.613 16.4807 158.274 16.4807C129.934 16.4807 106.961 48.0767 106.961 87.0525C106.961 126.028 129.934 157.624 158.274 157.624Z" fill="#31539E"/>
<path d="M160.789 100.014C165.555 100.014 169.418 94.2109 169.418 87.0525C169.418 79.8941 165.555 74.091 160.789 74.091C156.023 74.091 152.16 79.8941 152.16 87.0525C152.16 94.2109 156.023 100.014 160.789 100.014Z" fill="#C4C4C4"/>
<path d="M76.0117 167.922C71.5632 167.922 67.0254 166.799 62.5397 164.556C55.8483 161.213 50.5695 157.909 45.9054 154.992C39.3379 150.888 34.5945 147.924 30.4855 147.805C26.0245 147.684 19.7297 150.75 11.2614 157.644L11.6827 152.935H7.43488L8.34689 148.45L4.14866 148.202L4.37171 144.286L0 143.555C12.3915 133.468 21.6578 129.268 30.991 129.533C40.0715 129.781 47.266 134.281 55.5955 139.488C59.9152 142.187 64.8098 145.248 70.7131 148.202C75.0352 150.36 77.6746 149.689 79.4937 148.839C83.9819 146.769 88.6981 140.752 92.7749 131.9C94.9503 127.135 96.7251 122.198 98.0809 117.139L115.838 121.508C114.241 127.578 112.135 133.503 109.541 139.218C103.456 152.564 95.9372 161.384 87.1888 165.428C83.6901 167.066 79.8748 167.917 76.0117 167.922V167.922Z" fill="#31539E"/>
<path d="M20.255 133.332C16.2749 134.772 12.0593 137.099 7.36792 140.432C8.65168 142.328 10.0569 144.15 11.1994 146.118C11.8214 147.186 12.4162 148.276 13.0209 149.364C13.7198 150.317 14.3988 151.286 15.0581 152.269C19.4223 149.191 23.2092 147.23 26.4879 146.356C24.5574 141.942 22.426 137.622 20.255 133.332Z" fill="#C4C4C4"/>
<path d="M37.3974 146.767C38.7109 144.606 40.1012 142.489 41.4519 140.353C42.5051 138.693 43.5485 137.022 44.5621 135.337C40.1978 133.141 35.8212 131.654 30.9315 131.518C30.6837 131.518 30.4185 131.518 30.1632 131.518C28.1736 131.52 26.19 131.739 24.2476 132.17C26.5053 136.675 28.7085 141.208 30.6911 145.84C32.6738 145.922 34.7307 146.541 36.9612 147.557C37.095 147.285 37.2412 147.022 37.3974 146.767Z" fill="#E31E26"/>
<path d="M52.7676 154.194C54.1828 152.251 55.4938 150.229 56.775 148.202C57.6226 146.844 58.4553 145.476 59.2856 144.105C57.6226 143.099 56.0464 142.123 54.5421 141.173C52.3538 139.805 50.2472 138.489 48.1679 137.292C47.1171 139.045 46.0341 140.782 44.9462 142.497C43.593 144.633 42.2076 146.75 40.8917 148.908C40.7876 149.079 40.6885 149.25 40.5918 149.424C42.5397 150.531 44.6413 151.845 46.9635 153.295C48.3712 154.177 49.8383 155.094 51.3848 156.036C51.8457 155.434 52.3116 154.819 52.7676 154.194Z" fill="#C4C4C4"/>
<path d="M66.4355 162.031C67.1369 159.907 67.8283 157.78 68.5272 155.657C69.122 153.839 69.7292 152.03 70.3488 150.229C70.1753 150.15 70.0018 150.066 69.8283 149.981C67.3153 148.725 64.9907 147.453 62.8123 146.197C61.9697 147.59 61.1246 148.98 60.2646 150.358C58.9833 152.395 57.6723 154.398 56.2572 156.348C55.8136 156.958 55.3601 157.557 54.9041 158.155C57.4963 159.664 60.3092 161.218 63.4269 162.777C64.2133 163.17 64.999 163.526 65.7838 163.845C66.0118 163.24 66.2348 162.638 66.4355 162.031Z" fill="#E31E26"/>
<path d="M85.9323 156.844C85.1318 154.118 84.3289 151.406 83.3946 148.732C82.4496 149.486 81.42 150.128 80.3264 150.643C78.9798 151.29 77.5058 151.629 76.0117 151.634C75.4214 151.633 74.8321 151.584 74.2497 151.488C73.6367 153.271 73.0378 155.057 72.4529 156.846C71.7342 159.03 71.0229 161.218 70.2993 163.401C70.1084 163.979 69.8953 164.556 69.6797 165.136C71.7481 165.665 73.8742 165.936 76.0092 165.941C79.5831 165.936 83.1123 165.148 86.3487 163.632C86.8196 163.414 87.2871 163.18 87.7514 162.93C87.1616 160.893 86.5321 158.871 85.9323 156.844Z" fill="#C4C4C4"/>
<path d="M103.823 145.971C105.181 143.642 106.483 141.113 107.729 138.385C109.992 133.384 111.885 128.224 113.394 122.946L99.4886 119.523C98.1723 124.035 96.5324 128.446 94.5816 132.722C94.1132 133.744 93.6373 134.722 93.1541 135.667C96.6261 139.193 100.145 142.678 103.823 145.971Z" fill="#C4C4C4"/>
<path d="M91.092 139.404C89.7933 141.615 88.296 143.704 86.6187 145.644C87.8751 148.99 88.9012 152.427 89.9098 155.85C90.3832 157.451 90.8764 159.047 91.3547 160.645C95.0523 157.934 98.4822 154.211 101.645 149.476C98.0089 146.246 94.5244 142.851 91.092 139.404Z" fill="#E31E26"/>
<path d="M155.758 64.2844C146.633 64.2844 139.211 74.4975 139.211 87.0525C139.211 99.6075 146.633 109.823 155.758 109.823C164.883 109.823 172.303 99.61 172.303 87.0525C172.303 74.495 164.881 64.2844 155.758 64.2844ZM155.758 105.399C148.395 105.399 142.428 97.1862 142.428 87.0599C142.428 76.9336 148.395 68.7206 155.758 68.7206C163.121 68.7206 169.089 76.9336 169.089 87.0599C169.089 97.1862 163.119 105.399 155.758 105.399V105.399Z" fill="#31539E"/>
<path d="M155.758 0C120.814 0 92.4973 38.9761 92.4973 87.0525C92.4973 135.129 120.819 174.107 155.758 174.107C190.697 174.107 219.017 135.131 219.017 87.0525C219.017 38.9736 190.695 0 155.758 0ZM170.415 57.2213L186.092 29.6354C188.075 26.1435 191.733 25.6528 193.869 28.5945L196.055 31.6007L198.239 34.6069C200.377 37.5461 200.02 42.5771 197.495 45.3106L177.448 66.8718C175.337 69.1443 172.425 69.0155 170.648 66.5669C168.871 64.1184 168.772 60.1283 170.415 57.2213ZM152.663 8.62941H158.859C161.882 8.62941 164.214 12.5327 163.815 16.9342L160.722 51.6972C160.398 55.3601 158.271 58.1011 155.766 58.1011C153.26 58.1011 151.126 55.3601 150.809 51.6972L147.706 16.9342C147.312 12.5327 149.647 8.62941 152.663 8.62941ZM113.275 34.6069L115.461 31.6007L117.645 28.5945C119.783 25.6528 123.439 26.1435 125.424 29.6354L141.102 57.2213C142.752 60.1283 142.658 64.1332 140.881 66.5793C139.104 69.0254 136.192 69.1567 134.081 66.8841L114.034 45.323C111.493 42.5771 111.139 37.5461 113.275 34.6069ZM104.805 98.1404C101.605 98.6782 98.7699 95.4663 98.7699 91.3077V82.8022C98.7699 78.6436 101.605 75.4318 104.805 75.9696L130.066 80.2223C132.727 80.6684 134.718 83.5928 134.718 87.0525C134.718 90.5122 132.735 93.439 130.066 93.8851L104.805 98.1404ZM141.102 116.889L125.424 144.484C123.441 147.976 119.783 148.467 117.645 145.525L115.461 142.502L113.275 139.496C111.139 136.556 111.493 131.525 114.034 128.792L134.076 107.223C136.187 104.951 139.097 105.08 140.876 107.528C142.655 109.977 142.75 113.979 141.102 116.886V116.889ZM158.859 165.478H152.663C149.642 165.478 147.307 161.575 147.706 157.173L150.794 122.41C151.121 118.747 153.245 116.006 155.751 116.006C158.256 116.006 160.39 118.747 160.707 122.41L163.815 157.173C164.202 161.585 161.87 165.478 158.859 165.478ZM155.758 112.606C145.518 112.606 137.188 101.144 137.188 87.0525C137.188 72.9609 145.518 61.5013 155.758 61.5013C165.998 61.5013 174.326 72.9634 174.326 87.0525C174.326 101.142 165.996 112.606 155.758 112.606ZM198.239 139.501L196.055 142.502L193.869 145.508C191.733 148.45 188.078 147.954 186.092 144.484L170.415 116.886C168.762 113.979 168.856 109.974 170.635 107.528C172.415 105.082 175.324 104.951 177.436 107.223L197.483 128.797C200.02 131.53 200.377 136.554 198.239 139.501ZM212.747 91.3052C212.747 95.4638 209.909 98.6757 206.712 98.1379L181.451 93.8851C178.789 93.439 176.796 90.5147 176.796 87.0525C176.796 83.5903 178.779 80.6684 181.451 80.2223L206.712 75.9696C209.909 75.4318 212.747 78.6436 212.747 82.8022V91.3052Z" fill="#31539E"/>
<path d="M160.789 65.8829C152.306 65.8829 145.404 75.3797 145.404 87.0525C145.404 98.7252 152.306 108.225 160.789 108.225C169.272 108.225 176.174 98.7277 176.174 87.0525C176.174 75.3772 169.267 65.8829 160.789 65.8829ZM160.789 104.111C153.944 104.111 148.398 96.4749 148.398 87.0525C148.398 77.63 153.946 69.9969 160.789 69.9969C167.632 69.9969 173.18 77.6325 173.18 87.0525C173.18 96.4725 167.637 104.111 160.789 104.111Z" fill="#C4C4C4"/>
<path d="M160.789 0C125.845 0 97.5308 38.9761 97.5308 87.0525C97.5308 135.129 125.853 174.107 160.789 174.107C195.726 174.107 224.05 135.131 224.05 87.0525C224.05 38.9736 195.728 0 160.789 0ZM175.446 57.2213L191.123 29.6354C193.106 26.1435 196.767 25.6528 198.903 28.5945L201.086 31.6007L203.272 34.6069C205.408 37.5461 205.054 42.5771 202.514 45.3106L182.467 66.8718C180.355 69.1443 177.446 69.0155 175.666 66.5669C173.887 64.1184 173.795 60.1283 175.446 57.2213ZM157.701 8.62941H163.88C166.901 8.62941 169.235 12.5327 168.836 16.9342L165.756 51.6972C165.429 55.3601 163.305 58.1011 160.799 58.1011C158.294 58.1011 156.16 55.3601 155.842 51.6972L152.735 16.9342C152.346 12.5327 154.678 8.62941 157.701 8.62941ZM118.296 34.6069L120.48 31.6007L122.676 28.5945C124.812 25.6528 128.467 26.1435 130.452 29.6354L146.13 57.2213C147.783 60.1283 147.689 64.1332 145.909 66.5793C144.13 69.0254 141.221 69.1567 139.109 66.8841L119.062 45.323C116.527 42.5771 116.17 37.5461 118.309 34.6069H118.296ZM109.835 98.1404C106.638 98.6782 103.801 95.4663 103.801 91.3077V82.8022C103.801 78.6436 106.638 75.4318 109.835 75.9696L135.097 80.2223C137.758 80.6684 139.751 83.5928 139.751 87.0525C139.751 90.5122 137.768 93.439 135.097 93.8851L109.835 98.1404ZM146.133 116.889L130.455 144.484C128.472 147.976 124.814 148.467 122.678 145.525L120.492 142.502L118.309 139.496C116.17 136.556 116.527 131.525 119.065 128.792L139.112 107.218C141.223 104.946 144.135 105.075 145.912 107.523C147.689 109.972 147.786 113.979 146.133 116.886V116.889ZM163.88 165.481H157.701C154.678 165.481 152.346 161.577 152.745 157.176L155.835 122.413C156.16 118.75 158.286 116.009 160.792 116.009C163.297 116.009 165.431 118.75 165.748 122.413L168.844 157.173C169.235 161.585 166.901 165.478 163.88 165.478V165.481ZM160.789 111.206C151.109 111.213 143.245 100.371 143.245 87.0525C143.245 73.7341 151.121 62.8916 160.802 62.8916C170.482 62.8916 178.36 73.7317 178.36 87.0525C178.36 100.373 170.472 111.213 160.789 111.213V111.206ZM203.272 139.501L201.086 142.502L198.903 145.508C196.776 148.45 193.109 147.954 191.123 144.484L175.446 116.886C173.795 113.979 173.889 109.974 175.666 107.528C177.443 105.082 180.355 104.951 182.467 107.223L202.514 128.797C205.054 131.53 205.408 136.554 203.272 139.501ZM217.777 91.3052C217.777 95.4638 214.942 98.6757 211.743 98.1379L186.482 93.8851C183.82 93.439 181.83 90.5147 181.83 87.0525C181.83 83.5903 183.813 80.6684 186.482 80.2223L211.743 75.9696C214.942 75.4318 217.777 78.6436 217.777 82.8022V91.3052V91.3052Z" fill="#C4C4C4"/>
<path d="M179.111 71.189C176.943 71.189 174.898 70.0836 173.498 68.158C171.106 64.8693 170.945 59.712 173.114 55.8979L188.791 28.3095C190.33 25.6008 192.826 23.9849 195.465 23.9849C197.661 23.9849 199.651 25.0605 201.074 27.0159L205.45 33.0282C208.338 36.9935 207.899 43.4643 204.489 47.1347L184.434 68.7107C182.948 70.3092 181.057 71.189 179.111 71.189ZM195.468 25.3752C193.334 25.3752 191.292 26.7309 190.003 28.996L174.323 56.5844C172.412 59.9474 172.536 64.4703 174.623 67.3402C175.758 68.9015 177.394 69.7986 179.111 69.7986C180.667 69.7986 182.194 69.075 183.413 67.764L203.468 46.1879C206.457 42.9662 206.848 37.3206 204.323 33.8461L199.949 27.8337C198.796 26.2501 197.203 25.3752 195.465 25.3752H195.468Z" fill="#31539E"/>
<path d="M160.789 60.7826C156.824 60.7826 153.602 57.0652 153.151 51.9351L150.063 17.1721C149.761 13.757 150.759 10.4287 152.737 8.26511C154.105 6.77813 155.867 5.94791 157.694 5.94791H163.872C165.703 5.94791 167.466 6.7707 168.829 8.26511C170.811 10.4262 171.803 13.757 171.505 17.1721L168.427 51.9351C167.971 57.0627 164.759 60.7826 160.789 60.7826ZM157.701 7.33823C156.264 7.33823 154.866 8.00241 153.763 9.20438C152.046 11.0829 151.176 14.0172 151.448 17.0507L154.539 51.8137C154.928 56.2052 157.557 59.3923 160.789 59.3923C164.021 59.3923 166.65 56.2052 167.042 51.8137L170.13 17.0507C170.4 14.0172 169.535 11.0829 167.815 9.20438C166.715 8.00241 165.317 7.33823 163.879 7.33823H157.701Z" fill="#31539E"/>
<path d="M142.47 71.189C140.522 71.189 138.631 70.3092 137.146 68.7107L117.099 47.1347C113.689 43.4643 113.248 37.0059 116.138 33.0282L120.507 27.0134C121.932 25.0605 123.915 23.9849 126.115 23.9849C128.755 23.9849 131.248 25.6008 132.787 28.3095L148.467 55.8979C150.635 59.712 150.472 64.8693 148.083 68.158C146.683 70.0836 144.636 71.189 142.47 71.189ZM126.113 25.3752C124.378 25.3752 122.782 26.2501 121.63 27.8337L117.26 33.8461C114.735 37.3157 115.129 42.9736 118.115 46.1879L138.162 67.764C139.382 69.075 140.911 69.7986 142.467 69.7986C144.184 69.7986 145.82 68.9015 146.955 67.3402C149.039 64.4703 149.166 59.9474 147.255 56.5844L131.577 28.996C130.289 26.7309 128.247 25.3752 126.115 25.3752H126.113Z" fill="#31539E"/>
<path d="M109.134 100.879C104.715 100.879 101.117 96.584 101.117 91.3052V82.8022C101.117 77.5235 104.715 73.2286 109.134 73.2286C109.518 73.2286 109.902 73.261 110.281 73.3252L135.543 77.5705C139.535 78.2422 142.432 82.2273 142.432 87.0475C142.432 91.8678 139.528 95.8603 135.543 96.532L110.284 100.782C109.904 100.847 109.519 100.879 109.134 100.879ZM109.134 74.609C105.481 74.609 102.509 78.2818 102.509 82.7873V91.2904C102.509 95.8009 105.483 99.4687 109.134 99.4687C109.441 99.4678 109.748 99.4421 110.051 99.3919L135.315 95.1664C138.633 94.6088 141.044 91.2012 141.044 87.0599C141.044 82.9187 138.633 79.5135 135.315 78.9559L110.051 74.6957C109.748 74.6455 109.441 74.6198 109.134 74.6189V74.609Z" fill="#31539E"/>
<path d="M126.115 150.123C123.92 150.123 121.927 149.047 120.507 147.092L116.138 141.079C113.248 137.114 113.689 130.643 117.099 126.97L137.146 105.397C138.633 103.798 140.522 102.919 142.47 102.919C144.636 102.919 146.683 104.024 148.083 105.949C150.472 109.238 150.635 114.395 148.467 118.21L132.787 145.798C131.248 148.507 128.755 150.123 126.115 150.123ZM142.472 104.309C140.916 104.309 139.387 105.033 138.167 106.344L118.12 127.92C115.134 131.141 114.74 136.787 117.265 140.261L121.635 146.274C122.787 147.857 124.378 148.732 126.118 148.732C128.249 148.732 130.291 147.377 131.57 145.111L147.25 117.523C149.161 114.16 149.035 109.637 146.95 106.767C145.823 105.206 144.187 104.309 142.47 104.309H142.472Z" fill="#31539E"/>
<path d="M163.88 168.16H157.701C155.867 168.16 154.105 167.337 152.745 165.842C150.762 163.681 149.771 160.35 150.071 156.935L153.158 122.18C153.614 117.052 156.826 113.332 160.797 113.332C164.767 113.332 167.984 117.05 168.435 122.18L171.525 156.943C171.827 160.358 170.829 163.686 168.849 165.85C167.473 167.337 165.711 168.16 163.88 168.16ZM160.789 114.715C157.567 114.715 154.928 117.902 154.539 122.294L151.448 157.057C151.178 160.09 152.046 163.025 153.763 164.903C154.866 166.105 156.264 166.769 157.701 166.769H163.88C165.317 166.769 166.715 166.105 167.815 164.903C169.535 163.025 170.4 160.09 170.13 157.057L167.037 122.294C166.65 117.902 164.021 114.715 160.789 114.715Z" fill="#31539E"/>
<path d="M195.465 150.123C192.826 150.123 190.33 148.507 188.791 145.798L173.114 118.215C170.945 114.4 171.106 109.243 173.498 105.954C174.898 104.029 176.943 102.923 179.111 102.923C181.057 102.923 182.948 103.803 184.432 105.402L204.481 126.975C207.892 130.648 208.33 137.107 205.443 141.084L201.074 147.097C199.651 149.047 197.661 150.123 195.465 150.123ZM179.109 104.309C177.391 104.309 175.756 105.206 174.62 106.767C172.534 109.637 172.41 114.16 174.321 117.523L189.998 145.111C191.287 147.377 193.329 148.732 195.463 148.732C197.198 148.732 198.794 147.857 199.946 146.274L204.315 140.271C206.841 136.802 206.449 131.144 203.46 127.929L183.413 106.344C182.194 105.033 180.667 104.309 179.111 104.309H179.109Z" fill="#31539E"/>
<path d="M212.444 100.879C212.06 100.879 211.677 100.846 211.299 100.782L186.035 96.532C182.045 95.8603 179.146 91.8728 179.146 87.0525C179.146 82.2322 182.045 78.2471 186.035 77.5755L211.299 73.3252C211.677 73.261 212.06 73.2286 212.444 73.2286C216.865 73.2286 220.461 77.5235 220.461 82.8022V91.3052C220.461 96.584 216.865 100.879 212.444 100.879ZM212.444 74.609C212.138 74.6098 211.832 74.6355 211.53 74.6858L186.268 78.9485C182.947 79.5061 180.539 82.9137 180.539 87.0525C180.539 91.1912 182.947 94.6014 186.268 95.1664L211.53 99.4192C211.832 99.4694 212.138 99.4951 212.444 99.496C216.097 99.496 219.071 95.8232 219.071 91.3176V82.8022C219.081 78.2917 216.107 74.6189 212.444 74.6189V74.609Z" fill="#31539E"/>
</svg>
