<svg width="212" height="159" viewBox="0 0 212 159" fill="none" xmlns="http://www.w3.org/2000/svg">
<path d="M139.962 66.1275L138.793 58.032L59.7804 69.4407L0.0952148 78.0578L1.26438 86.1533C2.49837 85.9725 3.75365 86.2893 4.75407 87.034C5.75448 87.7787 6.41809 88.8903 6.59889 90.1243C6.7797 91.3583 6.4629 92.6136 5.71818 93.614C4.97346 94.6144 3.86183 95.278 2.62783 95.4588L3.26184 99.9753C4.48183 99.8277 5.71112 100.163 6.68675 100.911C7.66237 101.658 8.30686 102.757 8.48233 103.974C8.6578 105.19 8.35033 106.426 7.6257 107.419C6.90106 108.411 5.81679 109.081 4.60484 109.284L5.25589 113.794C5.8669 113.705 6.48935 113.738 7.08768 113.89C7.68602 114.043 8.24852 114.311 8.74309 114.681C9.23765 115.05 9.65459 115.514 9.97009 116.044C10.2856 116.575 10.4935 117.162 10.5819 117.773C10.6703 118.384 10.6375 119.007 10.4853 119.605C10.3332 120.204 10.0647 120.766 9.69514 121.261C9.32561 121.755 8.86227 122.172 8.3316 122.488C7.80093 122.803 7.21332 123.011 6.6023 123.099L7.25335 127.613C7.86436 127.524 8.48676 127.557 9.08501 127.71C9.68326 127.862 10.2456 128.131 10.74 128.5C11.2345 128.87 11.6512 129.334 11.9665 129.864C12.2818 130.395 12.4895 130.983 12.5776 131.594C12.6658 132.205 12.6328 132.827 12.4804 133.425C12.3281 134.024 12.0594 134.586 11.6897 135.08C11.32 135.575 10.8565 135.992 10.3258 136.307C9.79503 136.622 9.20737 136.83 8.59636 136.918L9.25081 141.428C9.86183 141.34 10.4842 141.373 11.0825 141.525C11.6807 141.677 12.2431 141.946 12.7375 142.316C13.2319 142.685 13.6487 143.149 13.964 143.68C14.2793 144.21 14.4869 144.798 14.5751 145.409C14.6633 146.02 14.6303 146.642 14.4779 147.241C14.3255 147.839 14.0569 148.401 13.6872 148.896C13.3175 149.39 12.854 149.807 12.3232 150.122C11.7925 150.437 11.2048 150.645 10.5938 150.733L11.763 158.842L71.4516 150.222L150.46 138.806L149.291 130.711C148.68 130.799 148.058 130.766 147.46 130.614C146.861 130.461 146.299 130.193 145.805 129.823C145.31 129.453 144.893 128.99 144.578 128.459C144.263 127.928 144.055 127.341 143.967 126.73C143.879 126.119 143.912 125.496 144.064 124.898C144.217 124.3 144.485 123.737 144.855 123.243C145.225 122.749 145.688 122.332 146.219 122.017C146.75 121.701 147.337 121.494 147.948 121.405L147.294 116.892C146.683 116.981 146.06 116.947 145.462 116.795C144.864 116.643 144.301 116.374 143.807 116.004C143.313 115.635 142.896 115.171 142.581 114.64C142.265 114.11 142.058 113.522 141.969 112.911C141.881 112.3 141.914 111.678 142.067 111.079C142.219 110.481 142.488 109.919 142.857 109.424C143.227 108.93 143.691 108.513 144.221 108.198C144.752 107.883 145.34 107.675 145.951 107.587L145.303 103.064C144.069 103.244 142.813 102.927 141.812 102.182C140.812 101.437 140.148 100.325 139.967 99.0907C139.786 97.8563 140.103 96.6006 140.848 95.5999C141.593 94.5991 142.705 93.9353 143.94 93.7545L143.289 89.2449C142.055 89.423 140.8 89.1036 139.802 88.3569C138.803 87.6103 138.142 86.4976 137.964 85.2636C137.786 84.0296 138.106 82.7754 138.852 81.7769C139.599 80.7784 140.712 80.1174 141.946 79.9393L141.291 75.4297C140.089 75.5422 138.889 75.1877 137.94 74.4396C136.992 73.6916 136.367 72.6074 136.197 71.4117C136.026 70.2159 136.321 69.0003 137.022 68.0165C137.723 67.0328 138.776 66.3564 139.962 66.1275V66.1275Z" fill="#31539E"/>
<path d="M201.498 57.231L200.329 49.1355L198.478 49.4048L138.793 58.0252L139.962 66.1276C141.182 65.98 142.411 66.3157 143.387 67.0629C144.362 67.8101 145.007 68.9095 145.182 70.1258C145.358 71.3421 145.05 72.5787 144.326 73.5712C143.601 74.5637 142.517 75.2332 141.305 75.4365L141.959 79.9462C143.193 79.7681 144.448 80.0875 145.446 80.8341C146.445 81.5807 147.106 82.6935 147.284 83.9275C147.462 85.1614 147.142 86.4157 146.396 87.4141C145.649 88.4126 144.536 89.0736 143.302 89.2517L143.94 93.7545C144.551 93.665 145.174 93.6968 145.773 93.848C146.372 93.9992 146.935 94.2669 147.431 94.6358C147.926 95.0047 148.344 95.4676 148.661 95.998C148.977 96.5285 149.186 97.1161 149.276 97.7273C149.366 98.3385 149.334 98.9614 149.183 99.5604C149.031 100.159 148.764 100.723 148.395 101.218C148.026 101.714 147.563 102.132 147.033 102.448C146.502 102.765 145.914 102.974 145.303 103.064L145.954 107.573C147.188 107.395 148.442 107.714 149.441 108.461C150.439 109.208 151.1 110.32 151.279 111.554C151.457 112.788 151.137 114.043 150.391 115.041C149.644 116.04 148.531 116.701 147.297 116.879L147.952 121.392C148.563 121.304 149.185 121.337 149.783 121.489C150.382 121.641 150.944 121.91 151.438 122.28C151.933 122.649 152.35 123.113 152.665 123.644C152.98 124.174 153.188 124.762 153.276 125.373C153.364 125.984 153.331 126.606 153.179 127.205C153.026 127.803 152.758 128.365 152.388 128.86C152.018 129.354 151.555 129.771 151.024 130.086C150.493 130.401 149.906 130.609 149.295 130.697L150.464 138.793L210.153 130.169L212 129.903L210.831 121.808C210.22 121.897 209.597 121.865 208.998 121.714C208.399 121.563 207.835 121.295 207.34 120.926C206.844 120.558 206.426 120.095 206.11 119.564C205.793 119.034 205.584 118.446 205.495 117.835C205.405 117.224 205.437 116.601 205.588 116.002C205.739 115.403 206.007 114.839 206.376 114.344C206.745 113.848 207.208 113.43 207.738 113.114C208.269 112.797 208.856 112.588 209.467 112.499L208.816 107.989C208.205 108.077 207.583 108.044 206.985 107.892C206.386 107.739 205.824 107.471 205.33 107.101C204.835 106.731 204.418 106.268 204.103 105.737C203.788 105.206 203.58 104.619 203.492 104.008C203.404 103.397 203.437 102.774 203.589 102.176C203.742 101.578 204.01 101.015 204.38 100.521C204.75 100.027 205.213 99.6099 205.744 99.2946C206.275 98.9793 206.862 98.7716 207.473 98.6834L206.819 94.1738C205.621 94.2776 204.429 93.9187 203.487 93.171C202.546 92.4232 201.927 91.3434 201.756 90.1532C201.586 88.9629 201.878 87.7528 202.573 86.7712C203.267 85.7896 204.311 85.1111 205.49 84.8751L204.838 80.3654C203.604 80.544 202.35 80.225 201.351 79.4787C200.352 78.7324 199.691 77.6198 199.512 76.3858C199.334 75.1518 199.653 73.8975 200.399 72.8986C201.146 71.8998 202.258 71.2384 203.492 71.0599L202.841 66.5366C202.23 66.6248 201.608 66.5917 201.009 66.4394C200.411 66.287 199.849 66.0183 199.354 65.6486C198.86 65.2789 198.443 64.8155 198.128 64.2847C197.813 63.754 197.605 63.1663 197.517 62.5553C197.429 61.9443 197.462 61.3219 197.614 60.7236C197.766 60.1254 198.035 59.563 198.405 59.0686C198.774 58.5742 199.238 58.1575 199.769 57.8422C200.299 57.5269 200.887 57.3192 201.498 57.231V57.231Z" fill="#C4C4C4"/>
<path d="M31.1138 148.49L31.0183 147.826C30.7132 145.744 29.5946 143.869 27.9081 142.611C26.2216 141.353 24.1051 140.816 22.0229 141.118L21.3583 141.213L14.3535 92.732L15.0352 92.6365C16.0673 92.4874 17.06 92.1365 17.9564 91.6037C18.8528 91.0709 19.6355 90.3667 20.2597 89.5314C20.8839 88.696 21.3375 87.7459 21.5944 86.7352C21.8513 85.7245 21.9066 84.6732 21.7571 83.6411C21.7571 83.5014 21.7128 83.3616 21.6821 83.2082L21.5423 82.5265L119.507 68.3738L119.568 69.0794C119.585 69.2362 119.599 69.3794 119.619 69.5157C119.924 71.5952 121.04 73.4692 122.723 74.7272C124.407 75.9852 126.52 76.5246 128.601 76.2273L129.265 76.1285L136.27 124.596L135.588 124.691C134.556 124.84 133.564 125.191 132.667 125.724C131.771 126.257 130.988 126.961 130.364 127.796C129.74 128.632 129.286 129.582 129.029 130.593C128.772 131.603 128.717 132.655 128.867 133.687L128.962 134.351L128.28 134.447L31.1138 148.49ZM23.1785 139.672C25.292 139.678 27.3405 140.404 28.9858 141.731C30.631 143.058 31.7748 144.906 32.2284 146.97L127.476 133.21C127.319 130.987 127.965 128.782 129.298 126.996C130.631 125.21 132.561 123.963 134.736 123.481L128.127 77.6283C125.818 77.7933 123.531 77.0898 121.715 75.6558C119.898 74.2219 118.682 72.1608 118.307 69.8771L23.1001 83.6445C23.3813 85.9394 22.7966 88.2566 21.4602 90.1433C20.1239 92.03 18.1319 93.3504 15.8738 93.8466L22.4967 139.696C22.7251 139.683 22.9501 139.672 23.1785 139.672Z" fill="#31539E"/>
<path d="M33.759 144.526L33.5476 144.076C32.7484 142.368 31.5401 140.883 30.0299 139.754C28.5197 138.624 26.7541 137.884 24.8897 137.6L24.3954 137.525L18.3042 95.3771L18.7541 95.1657C20.5285 94.3256 22.0595 93.0473 23.2028 91.4513C24.346 89.8554 25.0639 87.9945 25.2885 86.0442L25.3464 85.5295L116.698 72.3313L116.899 72.8119C117.666 74.6179 118.881 76.1988 120.429 77.4052C121.976 78.6117 123.806 79.4041 125.744 79.7076L126.239 79.7825L132.33 121.951L131.88 122.162C130.171 122.961 128.686 124.169 127.556 125.679C126.426 127.189 125.687 128.955 125.404 130.82L125.329 131.311L124.834 131.382L33.759 144.526ZM25.5782 136.345C27.4806 136.711 29.2753 137.503 30.827 138.663C32.3787 139.822 33.6469 141.319 34.5361 143.04L124.146 130.087C124.513 128.186 125.306 126.393 126.465 124.842C127.625 123.291 129.121 122.023 130.84 121.133L125.046 80.9108C123.063 80.5184 121.2 79.6664 119.606 78.4232C118.013 77.18 116.733 75.5803 115.87 73.7527L26.5633 86.6544C26.2575 88.6599 25.4838 90.5654 24.3048 92.2164C23.1257 93.8673 21.5745 95.2175 19.7767 96.1576L25.5782 136.345Z" fill="#C4C4C4"/>
<path d="M167.947 128.72L167.851 128.056C167.546 125.974 166.428 124.099 164.741 122.841C163.055 121.583 160.938 121.046 158.856 121.347L158.191 121.443L151.19 72.9619L151.872 72.8664C152.904 72.7174 153.896 72.3664 154.793 71.8336C155.689 71.3008 156.472 70.5966 157.096 69.7613C157.72 68.9259 158.174 67.9758 158.431 66.9651C158.688 65.9545 158.743 64.9031 158.593 63.871C158.576 63.7347 158.549 63.5915 158.519 63.4381L158.382 62.7564L182.907 59.2148L182.972 59.9204C182.972 60.0772 183.003 60.217 183.023 60.3567C183.33 62.4343 184.447 64.306 186.129 65.5635C187.811 66.8209 189.922 67.3619 192.002 67.0683L192.683 66.9695L199.685 115.433L199.003 115.532C196.919 115.834 195.04 116.951 193.778 118.638C192.517 120.325 191.978 122.443 192.278 124.528L192.373 125.192L167.947 128.72ZM160.011 119.902C162.126 119.908 164.174 120.635 165.82 121.962C167.465 123.29 168.609 125.139 169.061 127.203L190.877 124.051C190.721 121.828 191.368 119.624 192.701 117.838C194.033 116.053 195.962 114.805 198.137 114.322L191.524 68.4693C189.218 68.6315 186.934 67.9282 185.118 66.4969C183.302 65.0655 182.085 63.0088 181.704 60.7283L159.933 63.8744C160.214 66.1693 159.63 68.4865 158.293 70.3732C156.957 72.2599 154.965 73.5804 152.707 74.0765L159.333 119.929C159.558 119.912 159.787 119.902 160.011 119.902Z" fill="#E31E26"/>
<path d="M170.592 124.756L170.38 124.306C169.581 122.598 168.373 121.113 166.863 119.983C165.352 118.854 163.587 118.114 161.722 117.83L161.228 117.751L155.137 75.5865L155.59 75.3752C157.364 74.5349 158.894 73.2569 160.036 71.6616C161.179 70.0664 161.896 68.2064 162.121 66.2571L162.179 65.739L180.071 63.1723L180.272 63.6529C181.041 65.461 182.259 67.043 183.81 68.2496C185.36 69.4562 187.193 70.2475 189.135 70.5486L189.626 70.6236L195.717 112.792L195.267 113.003C193.558 113.802 192.073 115.01 190.944 116.521C189.814 118.031 189.074 119.797 188.79 121.661L188.715 122.152L170.592 124.756ZM162.411 116.575C164.313 116.941 166.108 117.733 167.66 118.893C169.211 120.052 170.48 121.549 171.369 123.27L187.57 120.962C187.935 119.06 188.728 117.266 189.887 115.715C191.047 114.164 192.544 112.896 194.265 112.008L188.453 71.7859C186.47 71.3935 184.607 70.5415 183.013 69.2983C181.42 68.0551 180.14 66.4554 179.277 64.6278L163.406 66.9184C163.091 68.9128 162.314 70.8058 161.136 72.4464C159.959 74.0869 158.415 75.4296 156.627 76.3671L162.411 116.575Z" fill="#31539E"/>
<path d="M13.365 79.9564L14.967 83.2048L18.5495 82.6867L15.9555 85.2125L17.5542 88.4609L14.3501 86.7737L11.7561 89.2995L12.3696 85.7306L9.16553 84.0433L12.7514 83.5252L13.365 79.9564Z" fill="#C4C4C4"/>
<path d="M126.6 63.5949L128.199 66.8433L131.785 66.3286L129.191 68.8544L130.789 72.1029L127.585 70.4156L124.988 72.9414L125.605 69.3691L122.401 67.6819L125.983 67.1637L126.6 63.5949Z" fill="#C4C4C4"/>
<path d="M22.6672 144.335L24.2659 147.584L27.8517 147.066L25.2544 149.591L26.8564 152.84L23.6523 151.153L21.0549 153.678L21.6719 150.11L18.4678 148.422L22.0537 147.904L22.6672 144.335Z" fill="#C4C4C4"/>
<path d="M135.902 127.977L137.501 131.226L141.087 130.708L138.489 133.233L140.091 136.482L136.887 134.795L134.29 137.32L134.907 133.751L131.703 132.064L135.285 131.546L135.902 127.977Z" fill="#C4C4C4"/>
<path d="M23.932 134.317L18.7031 98.1313L19.3678 98.0324L126.624 82.5367L131.853 118.726L131.171 118.822L23.932 134.317ZM20.2234 99.2663L25.0705 132.797L130.333 117.598L125.489 84.0706L20.2234 99.2663Z" fill="#C4C4C4"/>
<path d="M171.751 68.7522L173.353 72.0006L176.935 71.4825L174.341 74.0083L175.94 77.2567L172.736 75.5695L170.142 78.0953L170.755 74.5264L167.551 72.8392L171.137 72.321L171.751 68.7522Z" fill="#E31E26"/>
<path d="M173.25 79.1281L174.849 82.3765L178.435 81.8584L175.841 84.3842L177.44 87.6327L174.236 85.9454L171.638 88.4712L172.255 84.9023L169.051 83.2151L172.637 82.697L173.25 79.1281Z" fill="#E31E26"/>
<path d="M174.75 89.5005L176.349 92.7524L179.935 92.2309L177.338 94.7601L178.94 98.0085L175.736 96.3178L173.138 98.847L173.755 95.2748L170.551 93.5875L174.133 93.0694L174.75 89.5005Z" fill="#E31E26"/>
<path d="M176.247 99.8765L177.849 103.125L181.435 102.607L178.837 105.133L180.439 108.381L177.232 106.694L174.638 109.22L175.251 105.651L172.047 103.963L175.633 103.445L176.247 99.8765Z" fill="#E31E26"/>
<path d="M177.747 110.252L179.349 113.501L182.931 112.983L180.337 115.508L181.936 118.757L178.732 117.07L176.138 119.595L176.751 116.027L173.547 114.339L177.133 113.821L177.747 110.252Z" fill="#E31E26"/>
<path d="M32.7532 110.017L34.3518 113.266L37.9377 112.747L35.3437 115.273L36.9424 118.522L33.7382 116.834L31.1409 119.36L31.7578 115.791L28.5537 114.104L32.1362 113.586L32.7532 110.017Z" fill="#C4C4C4"/>
<path d="M116.514 97.9165L118.112 101.165L121.698 100.647L119.101 103.173L120.703 106.421L117.499 104.734L114.901 107.26L115.518 103.691L112.314 102.003L115.897 101.485L116.514 97.9165Z" fill="#C4C4C4"/>
<path d="M144.195 8.18073V0H4.05615V8.18073C5.3028 8.18073 6.4984 8.67596 7.37991 9.55747C8.26143 10.439 8.75666 11.6346 8.75666 12.8812C8.75666 14.1279 8.26143 15.3235 7.37991 16.205C6.4984 17.0865 5.3028 17.5817 4.05615 17.5817V22.1561C4.68431 22.1392 5.30949 22.2483 5.89477 22.477C6.48006 22.7057 7.01359 23.0494 7.46387 23.4877C7.91414 23.926 8.27203 24.4501 8.51641 25.029C8.76078 25.6079 8.88668 26.23 8.88668 26.8583C8.88668 27.4867 8.76078 28.1087 8.51641 28.6877C8.27203 29.2666 7.91414 29.7907 7.46387 30.229C7.01359 30.6673 6.48006 31.011 5.89477 31.2397C5.30949 31.4684 4.68431 31.5775 4.05615 31.5606V36.1179C4.68431 36.101 5.30949 36.2101 5.89477 36.4388C6.48006 36.6675 7.01359 37.0112 7.46387 37.4495C7.91414 37.8878 8.27203 38.4119 8.51641 38.9908C8.76078 39.5697 8.88668 40.1917 8.88668 40.8201C8.88668 41.4485 8.76078 42.0705 8.51641 42.6494C8.27203 43.2284 7.91414 43.7524 7.46387 44.1908C7.01359 44.6291 6.48006 44.9727 5.89477 45.2014C5.30949 45.4301 4.68431 45.5393 4.05615 45.5223V50.0763C4.68431 50.0594 5.30949 50.1685 5.89477 50.3972C6.48006 50.6259 7.01359 50.9695 7.46387 51.4078C7.91414 51.8462 8.27203 52.3703 8.51641 52.9492C8.76078 53.5281 8.88668 54.1501 8.88668 54.7785C8.88668 55.4069 8.76078 56.0289 8.51641 56.6078C8.27203 57.1867 7.91414 57.7108 7.46387 58.1491C7.01359 58.5874 6.48006 58.9311 5.89477 59.1598C5.30949 59.3885 4.68431 59.4976 4.05615 59.4807V64.038C4.68431 64.0211 5.30949 64.1302 5.89477 64.359C6.48006 64.5877 7.01359 64.9313 7.46387 65.3696C7.91414 65.8079 8.27203 66.332 8.51641 66.9109C8.76078 67.4899 8.88668 68.1119 8.88668 68.7403C8.88668 69.3686 8.76078 69.9907 8.51641 70.5696C8.27203 71.1485 7.91414 71.6726 7.46387 72.1109C7.01359 72.5492 6.48006 72.8929 5.89477 73.1216C5.30949 73.3503 4.68431 73.4594 4.05615 73.4425V81.6232H144.195V73.4425C143.567 73.4594 142.942 73.3503 142.357 73.1216C141.772 72.8929 141.238 72.5492 140.788 72.1109C140.337 71.6726 139.98 71.1485 139.735 70.5696C139.491 69.9907 139.365 69.3686 139.365 68.7403C139.365 68.1119 139.491 67.4899 139.735 66.9109C139.98 66.332 140.337 65.8079 140.788 65.3696C141.238 64.9313 141.772 64.5877 142.357 64.359C142.942 64.1302 143.567 64.0211 144.195 64.038V59.4637C143.567 59.4806 142.942 59.3715 142.357 59.1428C141.772 58.9141 141.238 58.5704 140.788 58.1321C140.337 57.6938 139.98 57.1697 139.735 56.5908C139.491 56.0118 139.365 55.3898 139.365 54.7614C139.365 54.1331 139.491 53.511 139.735 52.9321C139.98 52.3532 140.337 51.8291 140.788 51.3908C141.238 50.9525 141.772 50.6088 142.357 50.3801C142.942 50.1514 143.567 50.0423 144.195 50.0592V45.5053C143.567 45.5222 142.942 45.4131 142.357 45.1844C141.772 44.9557 141.238 44.612 140.788 44.1737C140.337 43.7354 139.98 43.2113 139.735 42.6324C139.491 42.0535 139.365 41.4315 139.365 40.8031C139.365 40.1747 139.491 39.5527 139.735 38.9738C139.98 38.3948 140.337 37.8708 140.788 37.4324C141.238 36.9941 141.772 36.6505 142.357 36.4218C142.942 36.1931 143.567 36.084 144.195 36.1009V31.5435C143.567 31.5604 142.942 31.4513 142.357 31.2226C141.772 30.9939 141.238 30.6503 140.788 30.2119C140.337 29.7736 139.98 29.2495 139.735 28.6706C139.491 28.0917 139.365 27.4697 139.365 26.8413C139.365 26.2129 139.491 25.5909 139.735 25.012C139.98 24.4331 140.337 23.909 140.788 23.4707C141.238 23.0324 141.772 22.6887 142.357 22.46C142.942 22.2313 143.567 22.1222 144.195 22.1391V17.5817C142.949 17.5817 141.753 17.0865 140.872 16.205C139.99 15.3235 139.495 14.1279 139.495 12.8812C139.495 11.6346 139.99 10.439 140.872 9.55747C141.753 8.67596 142.949 8.18073 144.195 8.18073V8.18073Z" fill="#E31E26"/>
<path d="M206.369 8.18073V0H144.195V8.18073C145.442 8.18073 146.638 8.67596 147.519 9.55747C148.401 10.439 148.896 11.6346 148.896 12.8812C148.896 14.1279 148.401 15.3235 147.519 16.205C146.638 17.0865 145.442 17.5817 144.195 17.5817V22.1561C145.42 22.1891 146.584 22.699 147.439 23.5772C148.294 24.4555 148.773 25.6327 148.773 26.8583C148.773 28.084 148.294 29.2612 147.439 30.1395C146.584 31.0177 145.42 31.5276 144.195 31.5606V36.1179C145.42 36.1509 146.584 36.6608 147.439 37.539C148.294 38.4173 148.773 39.5945 148.773 40.8201C148.773 42.0458 148.294 43.223 147.439 44.1012C146.584 44.9795 145.42 45.4893 144.195 45.5223V50.0763C145.42 50.1093 146.584 50.6191 147.439 51.4974C148.294 52.3756 148.773 53.5529 148.773 54.7785C148.773 56.0041 148.294 57.1814 147.439 58.0596C146.584 58.9378 145.42 59.4477 144.195 59.4807V64.038C145.42 64.071 146.584 64.5809 147.439 65.4592C148.294 66.3374 148.773 67.5146 148.773 68.7403C148.773 69.9659 148.294 71.1431 147.439 72.0214C146.584 72.8996 145.42 73.4095 144.195 73.4425V81.6232H206.369V73.4425C205.144 73.4095 203.98 72.8996 203.125 72.0214C202.27 71.1431 201.792 69.9659 201.792 68.7403C201.792 67.5146 202.27 66.3374 203.125 65.4592C203.98 64.5809 205.144 64.071 206.369 64.038V59.4637C205.144 59.4307 203.98 58.9208 203.125 58.0425C202.27 57.1643 201.792 55.9871 201.792 54.7614C201.792 53.5358 202.27 52.3586 203.125 51.4803C203.98 50.6021 205.144 50.0922 206.369 50.0592V45.5053C205.144 45.4723 203.98 44.9624 203.125 44.0842C202.27 43.2059 201.792 42.0287 201.792 40.8031C201.792 39.5774 202.27 38.4002 203.125 37.522C203.98 36.6437 205.144 36.1339 206.369 36.1009V31.5435C205.144 31.5105 203.98 31.0006 203.125 30.1224C202.27 29.2442 201.792 28.0669 201.792 26.8413C201.792 25.6157 202.27 24.4384 203.125 23.5602C203.98 22.682 205.144 22.1721 206.369 22.1391V17.5817C205.122 17.5817 203.927 17.0865 203.045 16.205C202.164 15.3235 201.668 14.1279 201.668 12.8812C201.668 11.6346 202.164 10.439 203.045 9.55747C203.927 8.67596 205.122 8.18073 206.369 8.18073V8.18073Z" fill="#C4C4C4"/>
<path d="M123.566 74.1378H24.6885V73.4561C24.6858 71.3506 23.8482 69.332 22.3594 67.8432C20.8705 66.3543 18.852 65.5167 16.7464 65.514H16.0647V16.5557H16.7464C18.852 16.553 20.8705 15.7154 22.3594 14.2266C23.8482 12.7377 24.6858 10.7192 24.6885 8.61362C24.6885 8.47387 24.6885 8.33071 24.6885 8.17391L24.6374 7.46832H123.617L123.576 8.18073C123.576 8.33753 123.576 8.48069 123.576 8.62044C123.578 10.7263 124.416 12.7453 125.905 14.2344C127.394 15.7234 129.413 16.5608 131.519 16.5626H132.2V65.5242H131.519C129.413 65.526 127.394 66.3634 125.905 67.8524C124.416 69.3414 123.578 71.3605 123.576 73.4663L123.566 74.1378ZM26.0009 72.7914H122.244C122.409 70.5681 123.367 68.478 124.944 66.9016C126.52 65.3251 128.61 64.367 130.833 64.2017V17.8749C128.529 17.7043 126.37 16.6816 124.778 15.0059C123.186 13.3303 122.275 11.1219 122.223 8.81133H26.0281C25.976 11.1219 25.0652 13.3303 23.4734 15.0059C21.8816 16.6816 19.7228 17.7043 17.4179 17.8749V64.2017C19.64 64.3686 21.7285 65.3274 23.3035 66.9037C24.8786 68.48 25.8357 70.5692 26.0009 72.7914Z" fill="#31539E"/>
<path d="M120.383 70.6065H27.8687L27.7256 70.1293C27.1778 68.3251 26.1935 66.6837 24.8599 65.3507C23.5263 64.0177 21.8845 63.0342 20.08 62.4871L19.6062 62.3406V19.736L20.08 19.5929C21.9558 19.0146 23.6535 17.9684 25.0132 16.5527C26.3728 15.137 27.3497 13.3984 27.8517 11.5008L27.9812 10.9997H120.27L120.403 11.5008C120.904 13.3984 121.88 15.1372 123.239 16.553C124.598 17.9688 126.296 19.015 128.171 19.5929L128.648 19.736V62.344L128.171 62.4906C126.367 63.0375 124.726 64.0211 123.393 65.3542C122.06 66.6872 121.076 68.3286 120.529 70.1327L120.383 70.6065ZM28.8538 69.2635H119.397C120.031 67.4336 121.072 65.7712 122.441 64.4015C123.811 63.0318 125.472 61.9903 127.302 61.3555V20.7211C125.397 20.0518 123.676 18.9451 122.277 17.49C120.877 16.0349 119.839 14.272 119.244 12.3427H29.0106C28.4149 14.272 27.3754 16.0348 25.9755 17.4898C24.5755 18.9448 22.8541 20.0515 20.9492 20.7211V61.3555C22.7791 61.9899 24.4412 63.0312 25.8104 64.401C27.1796 65.7708 28.2202 67.4333 28.8538 69.2635V69.2635Z" fill="#C4C4C4"/>
<path d="M187.621 74.1378H162.943V73.4561C162.94 71.3506 162.103 69.332 160.614 67.8432C159.125 66.3543 157.106 65.5167 155.001 65.514H154.319V16.5557H155.001C157.106 16.553 159.125 15.7154 160.614 14.2266C162.103 12.7377 162.94 10.7192 162.943 8.61362C162.943 8.47387 162.943 8.33071 162.943 8.17391L162.905 7.46832H187.686L187.635 8.18073C187.635 8.33753 187.635 8.48069 187.635 8.62044C187.637 10.7263 188.474 12.7453 189.963 14.2344C191.452 15.7234 193.471 16.5608 195.577 16.5626H196.259V65.5242H195.577C193.471 65.526 191.452 66.3634 189.963 67.8524C188.474 69.3414 187.637 71.3605 187.635 73.4663L187.621 74.1378ZM164.262 72.7914H186.302C186.468 70.5681 187.426 68.478 189.002 66.9016C190.579 65.3251 192.669 64.367 194.892 64.2017V17.8749C192.587 17.7043 190.428 16.6816 188.837 15.0059C187.245 13.3303 186.334 11.1219 186.282 8.81133H164.283C164.23 11.1219 163.32 13.3303 161.728 15.0059C160.136 16.6816 157.977 17.7043 155.672 17.8749V64.2017C157.896 64.367 159.986 65.3251 161.562 66.9016C163.139 68.478 164.097 70.5681 164.262 72.7914V72.7914Z" fill="#E31E26"/>
<path d="M184.441 70.6065H166.123L165.98 70.1293C165.432 68.3251 164.448 66.6837 163.114 65.3507C161.781 64.0177 160.139 63.0342 158.334 62.4871L157.857 62.3406V19.736L158.334 19.5929C160.208 19.0132 161.904 17.9662 163.262 16.5506C164.619 15.135 165.595 13.3972 166.096 11.5008L166.225 10.9997H184.318L184.448 11.5008C184.95 13.3985 185.926 15.1372 187.286 16.553C188.646 17.9688 190.344 19.0149 192.22 19.5929L192.693 19.736V62.344L192.22 62.4906C190.415 63.0376 188.773 64.0211 187.44 65.3541C186.106 66.6872 185.122 68.3285 184.574 70.1327L184.441 70.6065ZM167.118 69.2635H183.48C184.111 67.4358 185.148 65.7748 186.513 64.4052C187.878 63.0356 189.535 61.9929 191.361 61.3555V20.7211C189.456 20.0515 187.734 18.9448 186.334 17.4898C184.934 16.0348 183.895 14.272 183.299 12.3427H167.262C166.667 14.272 165.628 16.0349 164.229 17.49C162.829 18.9451 161.108 20.0518 159.204 20.7211V61.3555C161.035 61.9886 162.7 63.0293 164.071 64.3991C165.442 65.769 166.484 67.4323 167.118 69.2635V69.2635Z" fill="#31539E"/>
<path d="M16.9201 3.76996L18.0416 7.21268H21.6615L18.7335 9.34308L19.8516 12.7858L16.9201 10.6588L13.9921 12.7858L15.1101 9.34308L12.1787 7.21268H15.8021L16.9201 3.76996Z" fill="#C4C4C4"/>
<path d="M131.331 3.76996L132.449 7.21268H136.072L133.141 9.34308L134.262 12.7858L131.331 10.6588L128.4 12.7858L129.521 9.34308L126.59 7.21268H130.213L131.331 3.76996Z" fill="#C4C4C4"/>
<path d="M16.9201 68.817L18.0416 72.2631H21.6615L18.7335 74.3901L19.8516 77.8362L16.9201 75.7058L13.9921 77.8362L15.1101 74.3901L12.1787 72.2631H15.8021L16.9201 68.817Z" fill="#C4C4C4"/>
<path d="M131.331 68.817L132.449 72.2631H136.072L133.141 74.3901L134.262 77.8362L131.331 75.7058L128.4 77.8362L129.521 74.3901L126.59 72.2631H130.213L131.331 68.817Z" fill="#C4C4C4"/>
<path d="M128.648 59.0853H19.6062V22.5209H128.648V59.0853ZM20.9356 57.7423H127.285V23.8605H20.9356V57.7423Z" fill="#C4C4C4"/>
<path d="M175.282 15.3286L176.4 18.7714H180.024L177.092 20.9018L178.21 24.3445L175.282 22.2175L172.351 24.3445L173.472 20.9018L170.541 18.7714H174.164L175.282 15.3286Z" fill="#E31E26"/>
<path d="M175.282 25.8102L176.4 29.2563H180.024L177.092 31.3833L178.21 34.8294L175.282 32.699L172.351 34.8294L173.472 31.3833L170.541 29.2563H174.164L175.282 25.8102Z" fill="#E31E26"/>
<path d="M175.282 36.2917L176.4 39.7379H180.024L177.092 41.8649L178.21 45.311L175.282 43.1806L172.351 45.311L173.472 41.8649L170.541 39.7379H174.164L175.282 36.2917Z" fill="#E31E26"/>
<path d="M175.282 46.7767L176.4 50.2194H180.024L177.092 52.3498L178.21 55.7925L175.282 53.6656L172.351 55.7925L173.472 52.3498L170.541 50.2194H174.164L175.282 46.7767Z" fill="#E31E26"/>
<path d="M175.282 57.2583L176.4 60.7044H180.024L177.092 62.8314L178.21 66.2775L175.282 64.1471L172.351 66.2775L173.472 62.8314L170.541 60.7044H174.164L175.282 57.2583Z" fill="#E31E26"/>
<path d="M31.8125 36.2917L32.9305 39.7379H36.5505L33.6224 41.8649L34.7405 45.311L31.8125 43.1806L28.881 45.311L29.9991 41.8649L27.071 39.7379H30.691L31.8125 36.2917Z" fill="#C4C4C4"/>
<path d="M116.442 36.2917L117.56 39.7379H121.18L118.252 41.8649L119.37 45.311L116.442 43.1806L113.511 45.311L114.629 41.8649L111.701 39.7379H115.321L116.442 36.2917Z" fill="#C4C4C4"/>
</svg>
