<svg width="252" height="148" viewBox="0 0 252 148" fill="none" xmlns="http://www.w3.org/2000/svg">
<path d="M16.9995 75.6929H56.4625L80.9349 30.2611C81.2857 29.6097 81.7836 29.0492 82.3891 28.6242C82.9946 28.1991 83.6909 27.9211 84.4227 27.8124C85.1544 27.7037 85.9015 27.7673 86.6044 27.998C87.3073 28.2287 87.9466 28.6203 88.4716 29.1415L96.0684 36.6869C96.8369 37.4496 97.8758 37.8776 98.9585 37.8778V37.8778C99.6856 37.878 100.4 37.685 101.028 37.3186C101.656 36.9522 102.175 36.4255 102.533 35.7925C102.89 35.1594 103.073 34.4427 103.063 33.7157C103.053 32.9886 102.85 32.2774 102.474 31.6547L84.7675 2.30451C84.3736 1.6507 83.828 1.1014 83.1768 0.703095C82.5257 0.304787 81.7881 0.06919 81.0267 0.0162399C80.2652 -0.0367102 79.5022 0.0945445 78.8022 0.398898C78.1022 0.703251 77.4858 1.17175 77.0051 1.76474L16.9995 75.6929Z" fill="#31539E"/>
<path d="M234.512 75.693H195.049L170.577 30.2668C170.227 29.6151 169.729 29.0541 169.124 28.6284C168.519 28.2028 167.823 27.9242 167.092 27.815C166.36 27.7057 165.613 27.7687 164.91 27.999C164.207 28.2293 163.568 28.6206 163.043 29.1416L155.443 36.6869C154.674 37.4496 153.636 37.8777 152.553 37.8778V37.8778C151.826 37.878 151.112 37.685 150.484 37.3186C149.856 36.9522 149.336 36.4255 148.979 35.7925C148.621 35.1594 148.438 34.4427 148.448 33.7157C148.458 32.9887 148.662 32.2774 149.037 31.6548L166.744 2.30455C167.138 1.64888 167.684 1.09801 168.337 0.698741C168.989 0.299471 169.728 0.0636027 170.492 0.0111757C171.255 -0.0412513 172.019 0.0913129 172.72 0.397605C173.421 0.703897 174.038 1.17486 174.518 1.77049L234.512 75.693Z" fill="#31539E"/>
<path d="M236.777 79.8883C236.23 77.7573 234.99 75.8686 233.253 74.5196C231.515 73.1706 229.378 72.438 227.178 72.4372H24.3479C22.148 72.438 20.0108 73.1706 18.273 74.5196C16.5352 75.8686 15.2955 77.7573 14.7492 79.8883L0.620947 135.01C0.246612 136.474 0.211704 138.003 0.518889 139.482C0.826075 140.961 1.46723 142.35 2.39336 143.543C3.31949 144.736 4.50609 145.702 5.86251 146.366C7.21893 147.031 8.70928 147.376 10.2197 147.376H99.7726C101.373 147.377 102.95 146.989 104.368 146.247C105.786 145.505 107.003 144.431 107.915 143.115L117.625 129.121C118.537 127.807 119.754 126.733 121.171 125.992C122.589 125.25 124.165 124.863 125.764 124.863C127.364 124.863 128.94 125.25 130.357 125.992C131.775 126.733 132.992 127.807 133.904 129.121L143.614 143.115C144.524 144.428 145.738 145.501 147.153 146.243C148.568 146.985 150.141 147.374 151.739 147.376H241.292C242.802 147.376 244.293 147.031 245.65 146.366C247.006 145.701 248.193 144.736 249.119 143.542C250.046 142.349 250.687 140.959 250.994 139.48C251.301 138.001 251.265 136.471 250.89 135.007L236.777 79.8883Z" fill="#31539E"/>
<path d="M241.292 142.876H151.739C150.866 142.875 150.006 142.664 149.233 142.259C148.459 141.854 147.796 141.268 147.298 140.551L137.588 126.557C136.261 124.641 134.49 123.076 132.426 121.994C130.362 120.913 128.066 120.348 125.736 120.348C123.406 120.348 121.11 120.913 119.046 121.994C116.982 123.076 115.21 124.641 113.884 126.557L104.188 140.551C103.691 141.268 103.027 141.854 102.253 142.259C101.48 142.664 100.62 142.876 99.747 142.876H10.2198C9.39603 142.875 8.58327 142.687 7.8436 142.324C7.10393 141.961 6.45695 141.435 5.9521 140.784C5.44725 140.133 5.0979 139.375 4.93076 138.569C4.76362 137.762 4.78311 136.928 4.98773 136.13L19.1159 81.0107C19.4129 79.8487 20.0884 78.8187 21.0359 78.0833C21.9833 77.348 23.1486 76.949 24.348 76.9496H227.164C228.363 76.949 229.528 77.348 230.476 78.0833C231.423 78.8187 232.099 79.8487 232.396 81.0107L246.524 136.13C246.728 136.928 246.748 137.762 246.581 138.569C246.414 139.375 246.064 140.133 245.559 140.784C245.055 141.435 244.408 141.961 243.668 142.324C242.928 142.687 242.116 142.875 241.292 142.876V142.876ZM125.756 118.837C128.331 118.837 130.867 119.461 133.148 120.654C135.43 121.848 137.388 123.576 138.856 125.691L148.566 139.685C148.922 140.2 149.398 140.621 149.953 140.912C150.507 141.202 151.124 141.354 151.75 141.353H241.292C241.883 141.356 242.467 141.222 242.999 140.964C243.531 140.705 243.996 140.329 244.36 139.863C244.723 139.396 244.975 138.853 245.097 138.274C245.218 137.696 245.205 137.097 245.059 136.524L230.931 81.4048C230.718 80.5712 230.233 79.8322 229.554 79.3047C228.874 78.7771 228.038 78.4911 227.178 78.4918H24.348C23.4886 78.4884 22.6525 78.7708 21.9711 79.2945C21.2897 79.8182 20.8017 80.5535 20.5839 81.3848L6.4671 136.524C6.31979 137.096 6.30542 137.695 6.42509 138.273C6.54476 138.852 6.7953 139.396 7.15751 139.863C7.51972 140.33 7.984 140.708 8.51479 140.967C9.04558 141.227 9.6288 141.362 10.2198 141.362H99.7727C100.399 141.362 101.016 141.211 101.57 140.92C102.125 140.63 102.601 140.209 102.957 139.694L112.667 125.7C114.133 123.585 116.089 121.856 118.368 120.661C120.648 119.466 123.182 118.84 125.756 118.837Z" fill="#C4C4C4"/>
<path d="M13.9695 130.341L24.9819 87.3822C25.2136 86.4744 25.7412 85.6696 26.4813 85.095C27.2214 84.5204 28.1318 84.2088 29.0687 84.2093H109.765C110.882 84.2131 111.952 84.6594 112.741 85.4506C113.529 86.2418 113.972 87.3133 113.972 88.4303V112.389C113.973 113.248 113.711 114.087 113.221 114.793L100.047 133.794C99.658 134.354 99.1393 134.812 98.5351 135.128C97.9308 135.445 97.2589 135.61 96.5768 135.61H18.0392C17.3974 135.607 16.7649 135.457 16.1896 135.172C15.6143 134.888 15.1114 134.476 14.7191 133.968C14.3268 133.46 14.0554 132.87 13.9255 132.241C13.7957 131.613 13.8107 130.963 13.9695 130.341V130.341Z" fill="#E31E26"/>
<path d="M96.5881 132.449H18.0505C17.8891 132.449 17.7299 132.412 17.5849 132.341C17.4399 132.27 17.3129 132.168 17.2138 132.04C17.1146 131.913 17.0458 131.765 17.0126 131.607C16.9795 131.449 16.9828 131.286 17.0224 131.129L28.0405 88.1676C28.0992 87.9393 28.232 87.737 28.4181 87.5923C28.6041 87.4476 28.8329 87.3687 29.0686 87.3679H109.765C109.905 87.3675 110.044 87.3947 110.173 87.448C110.302 87.5012 110.419 87.5794 110.518 87.6781C110.617 87.7768 110.696 87.894 110.749 88.0231C110.803 88.1522 110.831 88.2906 110.831 88.4303V112.389C110.83 112.604 110.764 112.814 110.642 112.991L97.4678 131.994C97.3688 132.136 97.2371 132.251 97.0839 132.33C96.9307 132.409 96.7606 132.45 96.5881 132.449V132.449ZM18.6531 130.921H96.334L109.297 112.249V88.8958H29.437L18.6531 130.921Z" fill="#31539E"/>
<path d="M237.542 130.341L226.53 87.3822C226.298 86.4744 225.77 85.6696 225.03 85.095C224.29 84.5204 223.38 84.2088 222.443 84.2093H141.749C140.63 84.2093 139.556 84.654 138.764 85.4456C137.973 86.2372 137.528 87.3108 137.528 88.4303V112.389C137.528 113.248 137.79 114.087 138.279 114.793L151.453 133.794C151.842 134.354 152.361 134.812 152.965 135.128C153.57 135.444 154.241 135.61 154.923 135.61H233.461C234.104 135.608 234.738 135.46 235.314 135.176C235.891 134.892 236.395 134.481 236.789 133.973C237.183 133.464 237.455 132.873 237.585 132.244C237.716 131.614 237.701 130.964 237.542 130.341Z" fill="#C4C4C4"/>
<path d="M233.452 132.449H154.915C154.746 132.447 154.58 132.405 154.431 132.326C154.282 132.247 154.154 132.133 154.058 131.994L140.875 112.991C140.752 112.814 140.686 112.604 140.687 112.389V88.4303C140.687 88.1488 140.799 87.879 140.999 87.6799C141.198 87.4808 141.467 87.3687 141.749 87.3679H222.443C222.679 87.3677 222.908 87.4463 223.094 87.5911C223.28 87.736 223.413 87.9388 223.471 88.1676L234.492 131.126C234.533 131.283 234.537 131.447 234.504 131.605C234.471 131.764 234.403 131.913 234.303 132.04C234.204 132.168 234.077 132.271 233.931 132.342C233.785 132.413 233.626 132.449 233.464 132.449H233.452ZM155.166 130.921H232.847L222.08 88.8958H142.214V112.249L155.166 130.921Z" fill="#31539E"/>
<path d="M55.3459 128.762H35.9371L47.5321 90.8236H66.9409L55.3459 128.762Z" fill="#C4C4C4"/>
<path d="M33.2126 128.762H29.3057L40.9007 90.8236H44.8076L33.2126 128.762Z" fill="#C4C4C4"/>
<path d="M183.391 128.762H163.982L175.577 90.8236H194.986L183.391 128.762Z" fill="#E31E26"/>
<path d="M161.26 128.762H157.353L168.948 90.8236H172.855L161.26 128.762Z" fill="#E31E26"/>
<path d="M83.753 22.7709L82.6183 23.7941L87.9043 29.6566L89.0391 28.6334L83.753 22.7709Z" fill="#C4C4C4"/>
<path d="M58.2191 71.6747H32.0732V73.2026H58.2191V71.6747Z" fill="#C4C4C4"/>
<path d="M168 22.7776L162.714 28.6401L163.849 29.6633L169.135 23.8008L168 22.7776Z" fill="#C4C4C4"/>
<path d="M219.675 71.6747H193.529V73.2026H219.675V71.6747Z" fill="#C4C4C4"/>
</svg>
